<?xml version="1.0" standalone="no"?>
<!DOCTYPE svg PUBLIC "-//W3C//DTD SVG 20010904//EN"
 "http://www.w3.org/TR/2001/REC-SVG-20010904/DTD/svg10.dtd">
<svg version="1.0" xmlns="http://www.w3.org/2000/svg"
 width="620.000000pt" height="284.000000pt" viewBox="0 0 620.000000 284.000000"
 preserveAspectRatio="xMidYMid meet">

<g transform="translate(0.000000,284.000000) scale(0.100000,-0.100000)"
fill="#000000" stroke="none">
<path d="M2797 2152 c-3 -4 -4 -24 -3 -44 1 -29 -3 -38 -19 -42 -34 -9 -63 -7
-68 7 -4 7 -6 6 -6 -4 -1 -21 -41 -29 -144 -29 -65 0 -86 4 -115 22 -49 30
-72 54 -72 76 0 11 -5 8 -15 -12 -8 -15 -15 -36 -15 -46 0 -10 -8 -21 -17 -23
-17 -4 -17 -5 0 -6 15 -1 17 -16 18 -163 1 -120 3 -153 10 -125 5 21 15 48 21
60 7 12 17 38 23 57 17 55 63 80 151 80 146 0 224 -35 224 -101 0 -17 -15 -58
-32 -90 l-33 -59 -208 0 c-203 1 -248 -5 -231 -31 8 -13 454 -12 454 1 0 6 7
10 15 10 8 0 15 -4 15 -10 0 -6 38 -10 95 -10 101 0 115 8 75 43 -18 16 -20
25 -14 77 5 45 3 60 -6 60 -9 0 -10 12 -5 46 10 71 15 79 31 48 8 -14 14 -37
14 -50 0 -15 6 -24 15 -24 11 0 15 12 15 48 0 26 6 54 13 61 10 11 10 13 0 7
-10 -5 -13 8 -13 53 0 48 -3 61 -15 61 -11 0 -15 -11 -15 -36 0 -37 -29 -81
-38 -56 -7 23 -45 52 -67 52 -20 0 -22 4 -17 50 3 32 1 50 -6 50 -6 0 -13 -3
-15 -8z m3 -132 c-20 -13 -33 -13 -25 0 3 6 14 10 23 10 15 0 15 -2 2 -10z
m74 -12 c23 -33 20 -53 -15 -92 -17 -20 -34 -48 -38 -63 -4 -14 -14 -28 -22
-31 -9 -2 -10 -1 -3 5 6 4 14 23 17 41 6 27 4 32 -13 32 -11 0 -20 5 -20 10 0
13 37 13 42 0 5 -15 58 38 58 57 0 9 -10 27 -22 40 -12 13 -16 23 -10 23 6 0
18 -10 26 -22z m-174 1 c0 -5 -4 -7 -10 -4 -5 3 -10 -1 -10 -10 0 -9 -4 -14
-10 -10 -13 8 -1 35 16 35 8 0 14 -5 14 -11z m-87 -32 c-7 -11 -23 2 -23 19 0
12 2 12 14 2 8 -7 12 -16 9 -21z m147 29 c0 -2 -8 -10 -17 -17 -16 -13 -17
-12 -4 4 13 16 21 21 21 13z m74 -2 c9 -3 16 -11 16 -16 0 -6 -6 -5 -15 2 -14
12 -35 6 -35 -10 0 -5 7 -7 15 -4 8 4 15 1 15 -4 0 -19 -17 -22 -30 -7 -10 12
-10 18 0 30 14 17 13 17 34 9z m36 -119 c0 -8 -4 -15 -10 -15 -5 0 -10 7 -10
15 0 8 5 15 10 15 6 0 10 -7 10 -15z m10 -35 c0 -5 -5 -10 -11 -10 -5 0 -7 5
-4 10 3 6 8 10 11 10 2 0 4 -4 4 -10z m-59 -82 c-10 -11 -11 -9 -5 7 7 18 6
18 -9 6 -9 -7 -14 -18 -10 -24 3 -6 1 -7 -5 -3 -18 11 -14 34 6 39 24 5 39
-10 23 -25z m66 -15 c2 -5 -4 -19 -14 -29 -10 -11 -15 -15 -11 -9 4 6 4 22 1
34 -4 17 -2 22 7 19 8 -2 15 -9 17 -15z m-57 -13 c-8 -5 -22 -9 -30 -9 -10 0
-8 3 5 9 27 12 43 12 25 0z m-53 -16 c-3 -3 -12 -4 -19 -1 -8 3 -5 6 6 6 11 1
17 -2 13 -5z"/>
<path d="M4398 2047 c-5 -24 -4 -24 28 -11 43 18 75 18 68 1 -5 -15 -219 -116
-310 -147 -143 -50 -94 -2 76 74 76 34 115 56 100 56 -14 0 -80 -28 -147 -62
-90 -45 -123 -67 -123 -80 0 -33 28 -31 128 7 166 63 287 127 290 153 4 28
-18 37 -60 23 -23 -8 -34 -8 -38 0 -4 6 -9 0 -12 -14z"/>
<path d="M3000 2038 c0 -4 6 -8 14 -8 7 0 28 -3 46 -7 25 -5 32 -3 28 8 -5 15
-88 22 -88 7z"/>
<path d="M1313 1909 c-59 -12 -99 -50 -77 -72 4 -4 19 2 33 12 34 24 71 35 71
22 0 -6 -5 -11 -12 -11 -6 0 -22 -10 -35 -22 -21 -19 -21 -22 -6 -34 14 -10
22 -9 42 7 34 27 44 24 27 -8 -29 -55 -76 -92 -76 -59 0 11 -20 26 -35 26 -7
0 -13 -43 -8 -56 9 -25 41 -36 66 -23 69 36 119 118 97 159 -11 20 -10 21 9
10 27 -14 36 -53 21 -91 -19 -44 -90 -114 -146 -142 -41 -21 -83 -66 -254
-275 -113 -137 -206 -248 -208 -247 -2 2 86 122 195 267 l198 263 5 78 c4 56
1 82 -7 89 -18 14 -33 -30 -33 -95 l-1 -52 -515 -689 c-427 -570 -513 -691
-502 -702 11 -11 49 31 223 243 116 141 275 335 355 432 80 97 230 278 333
402 151 183 197 233 239 257 77 44 147 120 159 171 10 45 -4 95 -35 120 -22
18 -84 29 -123 20z"/>
<path d="M5482 1887 c-20 -21 -52 -120 -52 -161 0 -34 -22 -146 -29 -146 -3 1
-49 41 -101 90 -111 105 -131 111 -186 56 -29 -29 -34 -41 -34 -79 0 -36 6
-51 29 -76 24 -25 37 -31 73 -31 25 0 56 8 76 20 33 20 34 20 60 1 15 -10 37
-30 50 -43 21 -24 22 -26 7 -74 -19 -60 -46 -192 -52 -255 -5 -50 22 -122 58
-155 18 -16 19 -16 19 2 1 42 38 350 45 367 4 9 11 17 15 17 9 0 129 -123 221
-227 51 -57 66 -68 73 -56 12 23 -1 71 -34 123 -28 43 -104 121 -208 213 l-44
39 21 79 c12 44 21 82 21 84 0 3 11 5 25 5 38 0 92 25 104 48 27 50 4 149 -38
172 -35 18 -96 12 -119 -13z m106 -3 c26 -18 52 -65 52 -93 0 -56 -41 -91
-105 -91 -37 0 -33 8 -65 -120 -19 -77 -21 -80 -41 -80 -23 0 -24 14 -5 95 8
33 19 95 25 139 6 43 19 94 28 113 24 51 70 66 111 37z m-300 -226 c53 -50
100 -97 105 -104 17 -28 -13 -22 -54 11 -24 19 -48 35 -52 35 -4 0 -20 -9 -35
-20 -46 -34 -84 -36 -119 -6 -57 48 -51 114 13 156 16 11 33 20 37 20 4 0 52
-41 105 -92z m152 -200 c0 -3 -6 -40 -14 -81 -8 -41 -20 -130 -27 -197 -12
-121 -12 -123 -30 -101 -41 51 -42 85 -2 253 34 145 38 155 55 145 10 -7 18
-15 18 -19z m176 -104 c71 -70 124 -147 124 -178 -1 -18 -5 -16 -32 14 -17 19
-80 88 -140 152 -158 170 -122 179 48 12z"/>
<path d="M5533 1868 c-6 -7 -15 -35 -22 -62 -10 -41 -9 -52 4 -72 19 -30 48
-31 76 -3 28 28 22 104 -11 131 -26 21 -34 22 -47 6z m57 -83 c0 -40 -24 -64
-48 -48 -19 12 -19 53 -1 100 l11 28 19 -24 c10 -13 19 -38 19 -56z"/>
<path d="M5130 1690 c-23 -43 21 -100 77 -100 56 0 63 41 15 93 -31 33 -76 37
-92 7z m84 -31 c29 -34 26 -49 -9 -49 -25 0 -65 34 -65 55 0 36 42 33 74 -6z"/>
<path d="M2553 1210 c-30 -12 -46 -47 -40 -86 5 -30 2 -36 -23 -49 -37 -19
-60 -52 -60 -86 0 -58 77 -84 152 -51 43 19 45 19 67 1 38 -31 89 -21 112 24
11 20 11 21 -4 9 -18 -15 -49 -9 -67 13 -10 12 -7 23 15 56 16 22 35 44 44 49
11 7 1 9 -34 9 -27 0 -44 -3 -37 -6 17 -7 15 -48 -4 -64 -15 -12 -21 -9 -51
26 -31 36 -33 41 -17 50 27 15 64 53 64 65 0 5 -9 19 -20 30 -21 21 -60 25
-97 10z m55 -22 c19 -19 14 -56 -8 -68 -17 -9 -22 -7 -30 15 -6 15 -10 32 -10
39 0 27 27 35 48 14z m-25 -185 l30 -32 -27 -7 c-34 -8 -70 10 -85 43 -15 32
-14 39 5 58 15 15 18 14 32 -7 8 -13 28 -37 45 -55z"/>
<path d="M2286 775 c-4 -12 6 -15 64 -15 63 0 70 -2 70 -19 0 -20 -35 -51 -57
-51 -9 0 -10 7 -3 25 8 22 7 25 -10 25 -21 0 -32 -19 -45 -77 -5 -27 -4 -33
10 -33 9 0 19 9 22 20 3 13 19 24 44 30 21 6 51 22 68 35 16 14 36 23 43 20 8
-3 21 1 28 10 19 23 -9 52 -37 37 -12 -7 -25 -7 -34 -1 -7 5 -46 9 -85 9 -55
0 -73 -4 -78 -15z"/>
<path d="M3098 783 c-24 -6 -30 -30 -17 -74 9 -30 9 -42 -1 -54 -15 -18 -61
-20 -77 -4 -18 18 -3 39 28 39 16 0 29 5 29 10 0 15 -73 12 -94 -3 -52 -38 36
-91 113 -69 52 16 63 36 48 90 -13 50 -4 63 21 32 22 -27 52 -22 52 9 0 28
-46 39 -102 24z"/>
<path d="M3304 776 c-9 -24 4 -48 23 -44 12 2 18 12 18 28 0 29 -32 41 -41 16z"/>
<path d="M3945 776 c-11 -8 -16 -20 -13 -33 4 -15 -1 -24 -18 -31 -34 -16 -48
-47 -28 -66 18 -18 149 -23 159 -6 3 6 -5 10 -18 10 -19 0 -28 8 -36 32 -6 17
-10 32 -9 33 2 1 13 8 26 14 12 6 22 20 22 30 0 31 -52 42 -85 17z m55 -15 c0
-14 -18 -23 -30 -16 -6 4 -8 11 -5 16 8 12 35 12 35 0z m-46 -77 c10 -26 7
-34 -14 -34 -13 0 -20 7 -20 18 0 33 23 44 34 16z"/>
<path d="M4157 783 c-17 -17 -2 -23 57 -23 78 0 99 -16 75 -58 -15 -27 -64
-61 -74 -51 -3 3 1 25 10 48 14 41 14 42 -7 39 -16 -2 -26 -17 -39 -55 l-18
-53 27 0 c77 0 152 52 152 105 0 37 -35 55 -111 55 -36 0 -69 -3 -72 -7z"/>
<path d="M4614 776 c-9 -24 4 -48 23 -44 12 2 18 12 18 28 0 29 -32 41 -41 16z"/>
<path d="M2707 708 l-18 -63 -55 3 c-37 3 -54 8 -54 17 0 21 19 28 36 14 17
-14 41 2 30 20 -17 26 -94 7 -102 -25 -4 -17 -13 -24 -29 -24 -21 0 -23 3 -15
30 7 26 6 30 -10 30 -19 0 -45 -54 -34 -71 7 -12 71 -11 79 1 4 7 13 7 26 0
10 -6 47 -10 81 -9 49 1 70 7 94 25 l31 23 -5 -25 c-4 -22 -1 -24 31 -24 20 0
39 5 42 10 3 6 -3 10 -15 10 -16 0 -20 4 -15 19 3 11 1 22 -5 26 -8 5 -8 11 1
21 9 11 8 14 -4 14 -8 0 -25 -12 -37 -27 l-21 -28 5 25 c3 14 9 35 12 48 5 17
2 22 -12 22 -15 0 -23 -14 -37 -62z"/>
<path d="M3633 713 l-20 -58 -56 -3 c-58 -3 -64 1 -47 28 7 12 12 12 22 2 18
-18 38 -14 38 8 0 16 -7 20 -35 20 -36 0 -81 -32 -70 -50 4 -6 -7 -10 -24 -10
-37 0 -42 23 -10 41 16 8 18 13 9 19 -7 4 -9 16 -5 29 3 11 4 21 0 21 -12 0
-74 -69 -64 -72 20 -7 -3 -38 -28 -38 -22 0 -24 3 -18 30 6 25 4 30 -13 30
-17 0 -32 -32 -32 -70 0 -5 80 -8 178 -8 162 0 179 2 206 21 l28 20 -7 -22
c-6 -19 -3 -21 34 -21 22 0 43 5 46 10 3 6 -5 10 -19 10 -23 0 -25 2 -16 26 6
14 10 27 10 30 0 11 -30 2 -54 -17 l-27 -21 7 28 c4 16 11 39 15 52 7 18 5 22
-10 22 -15 0 -24 -15 -38 -57z"/>
<path d="M4517 710 l-17 -60 -55 0 c-41 0 -55 4 -55 14 0 19 23 33 28 18 5
-17 42 -15 42 3 0 19 -46 30 -79 19 -18 -6 -27 -18 -29 -36 -3 -22 2 -27 25
-32 45 -9 192 -5 198 5 4 5 -3 9 -14 9 -25 0 -25 5 -6 60 19 54 19 60 -3 60
-14 0 -23 -15 -35 -60z"/>
<path d="M3200 731 c-16 -18 -26 -41 -27 -64 l-2 -37 44 0 c24 0 47 5 50 10 4
6 -6 10 -23 10 -25 0 -29 3 -25 19 3 11 15 22 26 26 19 6 20 8 4 12 -12 3 -15
11 -11 29 8 31 -4 29 -36 -5z"/>
<path d="M4957 732 c-8 -11 -4 -82 4 -82 4 0 9 9 12 20 9 33 34 25 29 -10 -4
-29 -3 -30 31 -30 20 0 39 5 42 10 3 6 -5 10 -19 10 -23 0 -25 2 -16 26 14 35
14 34 -20 34 -20 0 -30 5 -30 15 0 15 -25 21 -33 7z"/>
<path d="M4596 679 c-3 -17 -6 -35 -6 -40 0 -12 67 -11 75 1 3 6 -3 10 -15 10
-19 0 -21 4 -15 30 6 25 4 30 -13 30 -14 0 -21 -9 -26 -31z"/>
<path d="M4674 694 c3 -9 6 -27 6 -40 0 -34 29 -31 65 6 35 36 55 38 55 6 0
-16 7 -26 23 -30 35 -9 105 -7 112 4 4 6 -13 10 -44 10 -38 0 -51 4 -51 14 0
19 23 33 28 18 5 -17 42 -15 42 2 0 19 -23 26 -90 26 -51 0 -61 -3 -78 -25
-11 -14 -23 -25 -26 -25 -3 0 -6 11 -6 25 0 19 -5 25 -21 25 -15 0 -19 -4 -15
-16z"/>
<path d="M5880 266 c0 -2 7 -7 16 -10 8 -3 12 -2 9 4 -6 10 -25 14 -25 6z"/>
</g>
</svg>
